<svg width="34" height="34" viewBox="0 0 34 34" fill="none" xmlns="http://www.w3.org/2000/svg">
<path d="M12.7218 16.4L22.7218 16.4" stroke="#D9D9D9" stroke-width="4" stroke-linecap="square"/>
<path d="M17.7218 21.4L17.7218 11.4" stroke="#D9D9D9" stroke-width="4" stroke-linecap="square"/>
<path d="M32.9245 20.56C32.287 23.0032 31.0805 25.2608 29.4033 27.1483C27.7262 29.0359 25.6262 30.4997 23.2749 31.42C20.9237 32.3404 18.388 32.6913 15.8752 32.4439C13.3624 32.1966 10.9438 31.358 8.81712 29.9968C6.69048 28.6356 4.9162 26.7904 3.63932 24.6121C2.36245 22.4338 1.61924 19.9842 1.47047 17.4636C1.3217 14.943 1.77159 12.423 2.78336 10.1096C3.79512 7.79623 5.34003 5.75514 7.29178 4.15322L9.32196 6.62675C7.76056 7.90829 6.52463 9.54116 5.71522 11.3919C4.90581 13.2426 4.5459 15.2586 4.66491 17.2751C4.78393 19.2915 5.37849 21.2512 6.39999 22.9938C7.42149 24.7365 8.84092 26.2126 10.5422 27.3016C12.2435 28.3906 14.1784 29.0614 16.1887 29.2593C18.1989 29.4572 20.2275 29.1765 22.1085 28.4402C23.9895 27.7039 25.6695 26.5329 27.0112 25.0229C28.3529 23.5128 29.3182 21.7067 29.8281 19.7522L32.9245 20.56Z" fill="#D9D9D9"/>
<mask id="path-4-inside-1_77_126" fill="white">
<path d="M1.96092 12.4818C2.59833 10.0386 3.80492 7.78092 5.48205 5.8934C7.15917 4.00589 9.2592 2.5421 11.6104 1.6217C13.9617 0.701314 16.4974 0.350459 19.0102 0.597826C21.523 0.845193 23.9416 1.68376 26.0683 3.04496C28.1949 4.40616 29.9692 6.25135 31.2461 8.42967C32.5229 10.608 33.2661 13.0576 33.4149 15.5781C33.5637 18.0987 33.1138 20.6187 32.102 22.9321C31.0903 25.2455 29.5453 27.2866 27.5936 28.8885L25.5634 26.415C27.1248 25.1335 28.3607 23.5006 29.1702 21.6499C29.9796 19.7992 30.3395 17.7832 30.2205 15.7667C30.1014 13.7502 29.5069 11.7906 28.4854 10.0479C27.4639 8.30525 26.0445 6.8291 24.3431 5.74014C22.6418 4.65118 20.707 3.98033 18.6967 3.78243C16.6864 3.58454 14.6579 3.86522 12.7769 4.60153C10.8959 5.33785 9.21588 6.50888 7.87418 8.01889C6.53248 9.52891 5.5672 11.335 5.05727 13.2896L1.96092 12.4818Z"/>
</mask>
<path d="M1.96092 12.4818C2.59833 10.0386 3.80492 7.78092 5.48205 5.8934C7.15917 4.00589 9.2592 2.5421 11.6104 1.6217C13.9617 0.701314 16.4974 0.350459 19.0102 0.597826C21.523 0.845193 23.9416 1.68376 26.0683 3.04496C28.1949 4.40616 29.9692 6.25135 31.2461 8.42967C32.5229 10.608 33.2661 13.0576 33.4149 15.5781C33.5637 18.0987 33.1138 20.6187 32.102 22.9321C31.0903 25.2455 29.5453 27.2866 27.5936 28.8885L25.5634 26.415C27.1248 25.1335 28.3607 23.5006 29.1702 21.6499C29.9796 19.7992 30.3395 17.7832 30.2205 15.7667C30.1014 13.7502 29.5069 11.7906 28.4854 10.0479C27.4639 8.30525 26.0445 6.8291 24.3431 5.74014C22.6418 4.65118 20.707 3.98033 18.6967 3.78243C16.6864 3.58454 14.6579 3.86522 12.7769 4.60153C10.8959 5.33785 9.21588 6.50888 7.87418 8.01889C6.53248 9.52891 5.5672 11.335 5.05727 13.2896L1.96092 12.4818Z" stroke="#D9D9D9" stroke-width="200" stroke-linejoin="round" stroke-dasharray="50 50" mask="url(#path-4-inside-1_77_126)"/>
</svg>
