<svg width="99" height="72" viewBox="0 0 99 72" fill="none" xmlns="http://www.w3.org/2000/svg">
<path d="M1.16797 65.0205L3.49121 64.8174C3.60124 65.7484 3.85514 66.5143 4.25293 67.1152C4.65918 67.7077 5.28548 68.1901 6.13184 68.5625C6.97819 68.9264 7.93034 69.1084 8.98828 69.1084C9.92773 69.1084 10.7572 68.9688 11.4766 68.6895C12.196 68.4102 12.7292 68.0293 13.0762 67.5469C13.4316 67.056 13.6094 66.5228 13.6094 65.9473C13.6094 65.3633 13.4401 64.8555 13.1016 64.4238C12.763 63.9837 12.2044 63.6156 11.4258 63.3193C10.9264 63.1247 9.82194 62.8242 8.1123 62.418C6.40267 62.0033 5.20508 61.6139 4.51953 61.25C3.63086 60.7845 2.96647 60.209 2.52637 59.5234C2.09473 58.8294 1.87891 58.055 1.87891 57.2002C1.87891 56.2607 2.14551 55.3848 2.67871 54.5723C3.21191 53.7513 3.99056 53.1292 5.01465 52.7061C6.03874 52.2829 7.17708 52.0713 8.42969 52.0713C9.80924 52.0713 11.0238 52.2956 12.0732 52.7441C13.1312 53.1842 13.9437 53.8359 14.5107 54.6992C15.0778 55.5625 15.3825 56.54 15.4248 57.6318L13.0635 57.8096C12.9365 56.6331 12.5049 55.7445 11.7686 55.1436C11.0407 54.5426 9.96159 54.2422 8.53125 54.2422C7.04167 54.2422 5.9541 54.5173 5.26855 55.0674C4.59147 55.609 4.25293 56.265 4.25293 57.0352C4.25293 57.7038 4.49414 58.2539 4.97656 58.6855C5.45052 59.1172 6.6862 59.5615 8.68359 60.0186C10.6895 60.4671 12.0648 60.8607 12.8096 61.1992C13.8929 61.6986 14.6927 62.3333 15.209 63.1035C15.7253 63.8652 15.9834 64.7454 15.9834 65.7441C15.9834 66.7344 15.6999 67.6696 15.1328 68.5498C14.5658 69.4215 13.749 70.1029 12.6826 70.5938C11.6247 71.0762 10.4313 71.3174 9.10254 71.3174C7.41829 71.3174 6.00488 71.0719 4.8623 70.5811C3.72819 70.0902 2.83529 69.3538 2.18359 68.3721C1.54036 67.3818 1.20182 66.2646 1.16797 65.0205ZM17.3037 71L24.4512 52.3887H27.1045L34.7217 71H31.916L29.7451 65.3633H21.9629L19.9189 71H17.3037ZM22.6738 63.3574H28.9834L27.041 58.2031C26.4486 56.6374 26.0085 55.3509 25.7207 54.3438C25.4837 55.5371 25.1494 56.722 24.7178 57.8984L22.6738 63.3574ZM36.5879 71V52.3887H39.0508V68.8037H48.2168V71H36.5879ZM54.5518 71L47.3408 52.3887H50.0068L54.8438 65.9092C55.2331 66.9925 55.5589 68.0081 55.8213 68.9561C56.109 67.9404 56.4434 66.9248 56.8242 65.9092L61.8516 52.3887H64.3652L57.0781 71H54.5518ZM62.6006 71L69.748 52.3887H72.4014L80.0186 71H77.2129L75.042 65.3633H67.2598L65.2158 71H62.6006ZM67.9707 63.3574H74.2803L72.3379 58.2031C71.7454 56.6374 71.3053 55.3509 71.0176 54.3438C70.7806 55.5371 70.4463 56.722 70.0146 57.8984L67.9707 63.3574ZM82.0244 71V52.3887H90.2764C91.9352 52.3887 93.1963 52.5579 94.0596 52.8965C94.9229 53.2266 95.6126 53.8148 96.1289 54.6611C96.6452 55.5075 96.9033 56.4427 96.9033 57.4668C96.9033 58.7871 96.4759 59.9001 95.6211 60.8057C94.7663 61.7113 93.446 62.2868 91.6602 62.5322C92.3118 62.8454 92.807 63.1543 93.1455 63.459C93.8649 64.1191 94.5462 64.9443 95.1895 65.9346L98.4268 71H95.3291L92.8662 67.1279C92.1468 66.0107 91.5544 65.1559 91.0889 64.5635C90.6234 63.971 90.2044 63.5563 89.832 63.3193C89.4681 63.0824 89.0957 62.9173 88.7148 62.8242C88.4355 62.765 87.9785 62.7354 87.3438 62.7354H84.4873V71H82.0244ZM84.4873 60.6025H89.7812C90.9069 60.6025 91.7871 60.4883 92.4219 60.2598C93.0566 60.0228 93.5391 59.6504 93.8691 59.1426C94.1992 58.6263 94.3643 58.0677 94.3643 57.4668C94.3643 56.5866 94.0426 55.863 93.3994 55.2959C92.7646 54.7288 91.7575 54.4453 90.3779 54.4453H84.4873V60.6025Z" fill="white"/>
<path d="M23 12.3657L45 38.1212L75 3" stroke="white" stroke-width="5" stroke-linecap="round" stroke-linejoin="round"/>
</svg>
