<svg width="61" height="63" viewBox="0 0 61 63" fill="none" xmlns="http://www.w3.org/2000/svg">
<path d="M0.71875 57.6839L2.14844 57.5589C2.21615 58.1318 2.3724 58.6032 2.61719 58.973C2.86719 59.3376 3.2526 59.6345 3.77344 59.8636C4.29427 60.0876 4.88021 60.1996 5.53125 60.1996C6.10938 60.1996 6.61979 60.1136 7.0625 59.9417C7.50521 59.7699 7.83333 59.5355 8.04688 59.2386C8.26562 58.9365 8.375 58.6084 8.375 58.2542C8.375 57.8949 8.27083 57.5824 8.0625 57.3167C7.85417 57.0459 7.51042 56.8193 7.03125 56.6371C6.72396 56.5173 6.04427 56.3324 4.99219 56.0824C3.9401 55.8272 3.20312 55.5876 2.78125 55.3636C2.23438 55.0772 1.82552 54.723 1.55469 54.3011C1.28906 53.874 1.15625 53.3975 1.15625 52.8714C1.15625 52.2933 1.32031 51.7542 1.64844 51.2542C1.97656 50.749 2.45573 50.3662 3.08594 50.1058C3.71615 49.8454 4.41667 49.7152 5.1875 49.7152C6.03646 49.7152 6.78385 49.8532 7.42969 50.1292C8.08073 50.4001 8.58073 50.8011 8.92969 51.3324C9.27865 51.8636 9.46615 52.4652 9.49219 53.1371L8.03906 53.2464C7.96094 52.5225 7.69531 51.9756 7.24219 51.6058C6.79427 51.236 6.13021 51.0511 5.25 51.0511C4.33333 51.0511 3.66406 51.2204 3.24219 51.5589C2.82552 51.8923 2.61719 52.2959 2.61719 52.7699C2.61719 53.1813 2.76562 53.5199 3.0625 53.7855C3.35417 54.0511 4.11458 54.3246 5.34375 54.6058C6.57812 54.8818 7.42448 55.124 7.88281 55.3324C8.54948 55.6397 9.04167 56.0303 9.35938 56.5042C9.67708 56.973 9.83594 57.5147 9.83594 58.1292C9.83594 58.7386 9.66146 59.3141 9.3125 59.8558C8.96354 60.3923 8.46094 60.8115 7.80469 61.1136C7.15365 61.4105 6.41927 61.5589 5.60156 61.5589C4.5651 61.5589 3.69531 61.4079 2.99219 61.1058C2.29427 60.8037 1.74479 60.3506 1.34375 59.7464C0.947917 59.1371 0.739583 58.4496 0.71875 57.6839ZM10.6484 61.3636L15.0469 49.9105H16.6797L21.3672 61.3636H19.6406L18.3047 57.8949H13.5156L12.2578 61.3636H10.6484ZM13.9531 56.6605H17.8359L16.6406 53.4886C16.276 52.5251 16.0052 51.7334 15.8281 51.1136C15.6823 51.848 15.4766 52.5772 15.2109 53.3011L13.9531 56.6605ZM22.5156 61.3636V49.9105H24.0312V60.0121H29.6719V61.3636H22.5156ZM33.5703 61.3636L29.1328 49.9105H30.7734L33.75 58.2308C33.9896 58.8975 34.1901 59.5225 34.3516 60.1058C34.5286 59.4808 34.7344 58.8558 34.9688 58.2308L38.0625 49.9105H39.6094L35.125 61.3636H33.5703ZM38.5234 61.3636L42.9219 49.9105H44.5547L49.2422 61.3636H47.5156L46.1797 57.8949H41.3906L40.1328 61.3636H38.5234ZM41.8281 56.6605H45.7109L44.5156 53.4886C44.151 52.5251 43.8802 51.7334 43.7031 51.1136C43.5573 51.848 43.3516 52.5772 43.0859 53.3011L41.8281 56.6605ZM50.4766 61.3636V49.9105H55.5547C56.5755 49.9105 57.3516 50.0147 57.8828 50.223C58.4141 50.4261 58.8385 50.7881 59.1562 51.3089C59.474 51.8298 59.6328 52.4053 59.6328 53.0355C59.6328 53.848 59.3698 54.5329 58.8438 55.0902C58.3177 55.6475 57.5052 56.0016 56.4062 56.1527C56.8073 56.3454 57.112 56.5355 57.3203 56.723C57.763 57.1292 58.1823 57.6371 58.5781 58.2464L60.5703 61.3636H58.6641L57.1484 58.9808C56.7057 58.2933 56.3411 57.7673 56.0547 57.4027C55.7682 57.0381 55.5104 56.7829 55.2812 56.6371C55.0573 56.4912 54.8281 56.3897 54.5938 56.3324C54.4219 56.2959 54.1406 56.2777 53.75 56.2777H51.9922V61.3636H50.4766ZM51.9922 54.9652H55.25C55.9427 54.9652 56.4844 54.8949 56.875 54.7542C57.2656 54.6084 57.5625 54.3792 57.7656 54.0667C57.9688 53.749 58.0703 53.4053 58.0703 53.0355C58.0703 52.4938 57.8724 52.0485 57.4766 51.6996C57.0859 51.3506 56.4661 51.1761 55.6172 51.1761H51.9922V54.9652Z" fill="white"/>
<path d="M4 11.3657L26 37.1212L56 2" stroke="white" stroke-width="4" stroke-linecap="round" stroke-linejoin="round"/>
</svg>
